<svg width="32" height="32" viewBox="0 0 32 32" fill="none" xmlns="http://www.w3.org/2000/svg">
<path d="M6.7356 5.55079C6.7356 4.99851 7.18331 4.55079 7.7356 4.55079L23.8342 4.55078C24.3865 4.55078 24.8342 4.9985 24.8342 5.55078V26.999C24.8342 27.5513 24.3865 27.999 23.8342 27.999H7.7356C7.18331 27.999 6.7356 27.5513 6.7356 26.999L6.7356 5.55079Z" fill="#D9D9D9"/>
<path d="M17.3206 22.6719L17.0619 23.1779C16.9504 23.3961 16.9922 23.6614 17.1655 23.8347C17.3388 24.008 17.6041 24.0498 17.8223 23.9383L18.3284 23.6796L17.3206 22.6719Z" fill="#48506D"/>
<path d="M20.2508 23.0332C20.2307 23.0452 20.2102 23.0566 20.1894 23.067C20.1453 23.0896 20.0991 23.1087 20.0516 23.1239C20.0506 23.1244 20.0499 23.1247 20.0489 23.1249L18.3286 23.678L17.3208 22.6702L17.8739 20.9499C17.8742 20.949 17.8744 20.9482 17.8749 20.9473C17.8901 20.8997 17.9092 20.8536 17.9319 20.8092C17.9423 20.7884 17.9536 20.7681 17.9657 20.7481L20.2508 23.0332Z" fill="white"/>
<path d="M26.4711 12.2004C26.7639 11.9074 27.2387 11.9072 27.5317 12.2L28.7996 13.4669C29.0926 13.7597 29.0928 14.2346 28.8 14.5276L28.0261 15.302L25.6972 12.9748L26.4711 12.2004Z" fill="#969696"/>
<path d="M25.8522 14.3729L18.7208 21.5046L18.609 21.6162C18.5614 21.5686 18.4921 21.5425 18.418 21.5548L18.0932 21.6089C17.945 21.6338 17.8163 21.5051 17.8409 21.3566L17.932 20.8107C17.9423 20.7899 17.9537 20.7697 17.9658 20.7496C18.0061 20.6825 18.0548 20.62 18.1106 20.5642L25.0771 13.5977L25.8522 14.3729Z" fill="#969696"/>
<path d="M27.4028 15.9233L20.4363 22.8898C20.3805 22.9456 20.318 22.9944 20.2508 23.0347C20.2308 23.0468 20.2103 23.0581 20.1895 23.0685L19.6438 23.1595C19.4953 23.1842 19.3667 23.0555 19.3915 22.9072L19.4456 22.5825C19.4579 22.5083 19.4319 22.439 19.3843 22.3915L19.4961 22.2799L26.6275 15.1483L27.4028 15.9233Z" fill="#969696"/>
<path d="M25.8522 14.3729L18.609 21.6162C18.6566 21.6638 18.6826 21.733 18.6703 21.8073L18.6161 22.1319C18.5914 22.2803 18.7201 22.409 18.8685 22.3843L19.1931 22.3301C19.2673 22.3178 19.3367 22.3438 19.3843 22.3915L26.6275 15.1483L25.8522 14.3729Z" fill="#969696"/>
<path d="M20.9547 4.431C20.7823 4.05169 20.403 3.77586 19.9547 3.77586H16.7478C16.6789 3.34483 16.2996 3 15.834 3C15.3685 3 14.9892 3.32759 14.9202 3.77586H11.6789C11.3858 3.77586 11.1099 3.89653 10.903 4.10343C10.7996 4.20688 10.7306 4.31031 10.6789 4.431C10.6271 4.56893 10.5927 4.70686 10.5927 4.86204C10.5927 5.46548 11.0754 5.94829 11.6789 5.94829H19.972C20.2823 5.94829 20.5409 5.82762 20.7478 5.62072C20.9375 5.43107 21.0754 5.15521 21.0754 4.84486C21.0409 4.72417 21.0064 4.56893 20.9547 4.431ZM15.8168 3.60345C16.0065 3.60345 16.1616 3.75862 16.1616 3.94828C16.1616 4.13793 16.0065 4.2931 15.8168 4.2931C15.6271 4.2931 15.472 4.13793 15.472 3.94828C15.472 3.75862 15.6271 3.60345 15.8168 3.60345Z" fill="#969696"/>
<path d="M10.7083 12.0003C11.813 12.0003 12.7085 11.1049 12.7085 10.0002C12.7085 8.89555 11.813 8 10.7083 8C9.60363 8 8.70813 8.89555 8.70813 10.0002C8.70813 11.1049 9.60363 12.0003 10.7083 12.0003Z" fill="#B8F1B0"/>
<path d="M10.3369 10.8667C10.2544 10.8667 10.172 10.8461 10.1101 10.7843L9.5121 10.1863C9.38838 10.0626 9.38838 9.87698 9.5121 9.75326C9.63583 9.62954 9.8214 9.62954 9.94513 9.75326L10.3369 10.145L11.3267 9.15529C11.4504 9.03157 11.636 9.03157 11.7597 9.15529C11.8835 9.27901 11.8835 9.46462 11.7597 9.58834L10.5431 10.8049C10.5019 10.8462 10.4194 10.8667 10.3369 10.8667Z" fill="#1E1E1E"/>
<path d="M10.6875 18.7017C11.8036 18.7017 12.7083 17.797 12.7083 16.6809C12.7083 15.5649 11.8036 14.6602 10.6875 14.6602C9.57147 14.6602 8.66675 15.5649 8.66675 16.6809C8.66675 17.797 9.57147 18.7017 10.6875 18.7017Z" fill="#B8F1B0"/>
<path d="M10.337 17.5679C10.2546 17.5679 10.1721 17.5267 10.1102 17.4855L9.51223 16.8875C9.3885 16.7638 9.3885 16.5782 9.51223 16.4544C9.63595 16.3307 9.82153 16.3307 9.94525 16.4544L10.337 16.8462L11.3268 15.8565C11.4505 15.7327 11.6361 15.7327 11.7599 15.8565C11.8836 15.9802 11.8836 16.1658 11.7599 16.2895L10.5432 17.5061C10.502 17.5473 10.4195 17.5679 10.337 17.5679Z" fill="#1E1E1E"/>
<path d="M10.708 25.4244C11.8241 25.4244 12.7288 24.5197 12.7288 23.4037C12.7288 22.2876 11.8241 21.3828 10.708 21.3828C9.59198 21.3828 8.68726 22.2876 8.68726 23.4037C8.68726 24.5197 9.59198 25.4244 10.708 25.4244Z" fill="#B8F1B0"/>
<path d="M10.337 24.2691C10.2546 24.2691 10.1721 24.2279 10.1102 24.1866L9.51223 23.5887C9.3885 23.4649 9.3885 23.2793 9.51223 23.1556C9.63595 23.0319 9.82153 23.0319 9.94525 23.1556L10.337 23.5474L11.3268 22.5576C11.4505 22.4339 11.6361 22.4339 11.7599 22.5576C11.8836 22.6814 11.8836 22.867 11.7599 22.9907L10.5432 24.2073C10.502 24.2485 10.4195 24.2691 10.337 24.2691Z" fill="#1E1E1E"/>
<rect x="15" y="9.33203" width="7" height="1.25" rx="0.625" fill="#969696"/>
<rect x="15" y="16" width="3.33333" height="1.25" rx="0.625" fill="#969696"/>
</svg>
